<?xml version="1.0" standalone="no"?>
<!DOCTYPE svg PUBLIC "-//W3C//DTD SVG 20010904//EN"
 "http://www.w3.org/TR/2001/REC-SVG-20010904/DTD/svg10.dtd">
<svg version="1.0" xmlns="http://www.w3.org/2000/svg"
 width="133.000000pt" height="115.000000pt" viewBox="0 0 133.000000 115.000000"
 preserveAspectRatio="xMidYMid meet">

<g transform="translate(0.000000,115.000000) scale(0.100000,-0.100000)"
fill="#2563eb" stroke="none">
<path d="M124 1066 l-34 -34 0 -441 c0 -472 1 -485 49 -511 28 -15 1062 -14
1094 1 14 6 30 22 36 36 8 16 11 164 11 471 0 487 1 471 -57 501 -15 8 -179
11 -543 11 l-522 0 -34 -34z m1096 -26 c19 -19 20 -33 20 -459 0 -386 -2 -441
-16 -455 -14 -14 -76 -16 -535 -16 -506 0 -520 1 -539 20 -19 19 -20 33 -20
452 0 429 0 432 22 455 l21 23 514 0 c500 0 514 -1 533 -20z"/>
<path d="M284 980 c-47 -19 -71 -102 -41 -141 30 -39 97 -51 133 -24 18 14 17
15 -8 4 -42 -18 -75 -5 -88 37 -29 87 44 162 100 102 20 -22 20 -22 20 -1 0
29 -68 43 -116 23z"/>
<path d="M500 964 c-6 -15 -7 -32 -2 -38 4 -6 14 -24 20 -40 l13 -28 -35 4
c-20 2 -37 -1 -39 -7 -3 -6 10 -9 34 -7 30 3 40 0 45 -13 4 -10 1 -21 -7 -26
-9 -6 2 -9 34 -9 42 0 47 2 34 14 -8 8 -29 51 -47 95 -18 45 -34 81 -36 81 -3
0 -9 -12 -14 -26z"/>
<path d="M633 983 c14 -4 17 -17 17 -88 0 -71 -3 -84 -17 -88 -10 -3 7 -5 37
-5 30 0 47 2 38 5 -13 3 -18 15 -18 44 0 34 3 39 23 39 33 0 67 28 67 54 0 31
-37 46 -108 45 -31 -1 -49 -3 -39 -6z m101 -25 c13 -21 -2 -51 -28 -56 -13 -3
-16 5 -16 38 0 33 3 41 16 38 9 -2 22 -11 28 -20z"/>
<path d="M811 964 c-26 -33 -16 -54 41 -86 28 -15 43 -30 43 -43 0 -29 -42
-32 -71 -4 -24 22 -24 22 -24 2 0 -17 8 -23 39 -28 45 -7 77 5 86 35 9 29 -11
57 -56 80 -27 14 -39 27 -37 38 5 26 43 26 67 1 21 -22 21 -22 21 -2 0 15 -8
22 -31 27 -49 10 -56 8 -78 -20z"/>
<path d="M1030 964 c-6 -15 -7 -32 -2 -38 4 -6 14 -24 20 -40 l13 -28 -35 4
c-20 2 -37 -1 -39 -7 -3 -6 10 -9 34 -7 30 3 40 0 45 -13 4 -10 1 -21 -7 -26
-9 -6 2 -9 34 -9 42 0 47 2 34 14 -8 8 -29 51 -47 95 -18 45 -34 81 -36 81 -3
0 -9 -12 -14 -26z"/>
<path d="M430 815 c-11 -13 -8 -15 16 -15 16 0 25 4 19 8 -5 4 -13 11 -16 15
-3 4 -12 1 -19 -8z"/>
<path d="M960 815 c-11 -13 -8 -15 16 -15 16 0 25 4 19 8 -5 4 -13 11 -16 15
-3 4 -12 1 -19 -8z"/>
<path d="M228 720 c15 -43 48 -52 75 -22 25 27 22 30 -32 34 -40 2 -48 0 -43
-12z"/>
<path d="M340 722 c0 -16 38 -44 56 -40 9 1 23 13 32 26 14 22 14 22 -37 22
-28 0 -51 -4 -51 -8z"/>
<path d="M460 722 c0 -14 35 -42 51 -42 18 0 39 20 39 37 0 9 -15 13 -45 13
-25 0 -45 -4 -45 -8z"/>
<path d="M580 722 c0 -12 34 -42 48 -42 13 0 42 28 42 41 0 5 -20 9 -45 9 -25
0 -45 -4 -45 -8z"/>
<path d="M700 715 c0 -8 9 -19 21 -25 16 -9 26 -8 45 5 36 23 29 35 -21 35
-33 0 -45 -4 -45 -15z"/>
<path d="M820 711 c15 -29 48 -36 71 -15 30 27 23 34 -31 34 -47 0 -50 -1 -40
-19z"/>
<path d="M930 722 c0 -16 38 -44 56 -40 9 1 23 13 32 26 14 22 14 22 -37 22
-28 0 -51 -4 -51 -8z"/>
<path d="M1050 722 c0 -14 35 -42 51 -42 18 0 39 20 39 37 0 9 -15 13 -45 13
-25 0 -45 -4 -45 -8z"/>
<path d="M324 593 l66 -78 0 -68 c0 -55 -5 -78 -30 -127 -16 -33 -30 -62 -30
-65 0 -3 12 -5 26 -5 18 0 25 -4 21 -14 -3 -7 -9 -34 -12 -60 -7 -42 -5 -46
13 -46 16 0 21 9 27 48 8 61 17 75 45 70 19 -2 27 -15 43 -60 14 -44 23 -58
38 -58 23 0 23 -5 0 63 l-20 57 20 0 c19 0 18 5 -15 65 -31 57 -36 75 -36 132
l0 66 60 73 c33 40 60 75 60 78 0 3 -10 6 -22 6 -15 -1 -35 -16 -57 -46 l-35
-46 -16 22 c-20 27 -61 24 -74 -5 -8 -20 -12 -18 -54 27 -25 26 -53 48 -64 48
-15 0 -4 -17 46 -77z"/>
<path d="M1020 612 c-38 -49 -45 -54 -48 -35 -5 35 -28 48 -58 34 -21 -9 -25
-17 -22 -41 4 -28 1 -26 -50 30 -31 35 -62 60 -73 60 -16 0 -6 -16 45 -77 l66
-78 0 -100 c0 -78 -6 -117 -25 -180 -14 -44 -25 -83 -25 -87 0 -5 11 -8 24 -8
22 0 28 9 52 85 16 47 31 85 34 85 4 0 24 -38 45 -85 32 -72 41 -85 61 -85 13
0 24 2 24 4 0 3 -20 48 -45 102 -43 92 -45 101 -45 187 l0 90 65 72 c36 40 65
76 65 79 0 3 -10 6 -22 5 -16 0 -38 -19 -68 -57z"/>
<path d="M554 386 c43 -49 46 -57 46 -108 0 -31 -7 -75 -15 -98 -18 -52 -18
-50 -1 -50 8 0 20 17 27 38 18 58 21 58 46 9 13 -26 30 -47 38 -47 12 0 10 10
-10 50 -18 36 -25 65 -25 108 0 54 2 60 40 97 22 21 40 43 40 47 0 18 -33 6
-53 -18 -20 -26 -21 -26 -28 -5 -10 25 -54 29 -67 6 -7 -14 -11 -13 -27 5 -10
11 -27 20 -37 20 -16 0 -11 -10 26 -54z"/>
</g>
</svg>
