<?xml version="1.0" standalone="no"?>
<!DOCTYPE svg PUBLIC "-//W3C//DTD SVG 20010904//EN"
 "http://www.w3.org/TR/2001/REC-SVG-20010904/DTD/svg10.dtd">
<svg version="1.0" xmlns="http://www.w3.org/2000/svg"
 width="300.000000pt" height="300.000000pt" viewBox="0 0 300.000000 300.000000"
 preserveAspectRatio="xMidYMid meet">
<metadata>
Created by potrace 1.10, written by Peter Selinger 2001-2011
</metadata>
<g transform="translate(0.000000,300.000000) scale(0.100000,-0.100000)"
fill="#0ea4e9" stroke="none">
<path d="M1260 2210 c-25 -25 -34 -61 -27 -107 8 -48 33 -73 73 -73 63 0 96
88 59 159 -23 45 -71 55 -105 21z"/>
<path d="M1245 1954 c-42 -23 -93 -72 -122 -118 -31 -49 -73 -158 -73 -192 0
-45 23 -21 73 77 26 52 57 103 67 114 20 19 20 19 20 -10 0 -17 -7 -68 -16
-115 -19 -105 -34 -398 -24 -464 16 -104 63 -72 74 51 6 80 19 137 35 162 8
12 12 12 25 2 12 -10 16 -34 16 -102 0 -100 11 -142 38 -137 32 6 44 73 46
258 0 96 -3 224 -8 284 -7 89 -6 108 5 104 23 -7 67 -97 90 -183 26 -97 40
-115 91 -115 34 0 42 5 74 50 20 28 37 50 39 50 2 0 3 -87 2 -192 0 -195 8
-248 37 -248 14 0 26 42 26 95 0 58 20 85 34 48 4 -10 11 -51 17 -92 10 -86
23 -106 46 -76 13 17 14 46 9 190 -3 94 -10 190 -15 215 -5 25 -7 47 -4 50 10
10 42 -43 63 -105 14 -43 27 -65 37 -65 38 0 -23 159 -85 223 -43 44 -93 61
-141 47 -46 -13 -58 -25 -92 -91 -26 -53 -56 -78 -77 -65 -5 3 -12 32 -15 65
-12 109 -69 222 -139 274 -36 27 -114 32 -153 11z"/>
<path d="M1733 1952 c-23 -15 -34 -63 -22 -99 26 -79 109 -54 109 34 0 55 -47
90 -87 65z"/>
<path d="M1038 1568 c-2 -16 -12 -24 -34 -29 -45 -9 -52 -15 -59 -58 -4 -26
-13 -42 -28 -48 -20 -9 -29 -43 -81 -292 -33 -154 -58 -283 -55 -285 2 -2 144
7 315 22 295 24 313 25 347 9 45 -22 119 -22 164 0 34 16 52 15 347 -9 171
-15 313 -24 315 -22 3 2 -22 131 -55 285 -52 249 -61 283 -81 292 -15 6 -24
22 -28 48 -7 43 -14 49 -59 58 -22 5 -32 13 -34 29 -2 14 -10 22 -23 22 -22 0
-24 -8 -5 -24 9 -7 23 -83 41 -216 15 -113 29 -218 32 -235 l5 -30 -94 -1
c-116 -1 -232 -26 -323 -69 -102 -49 -151 -109 -53 -65 125 55 376 73 522 37
38 -10 71 -15 74 -12 3 3 -11 102 -32 221 -34 198 -40 265 -18 203 13 -36 115
-520 110 -524 -5 -5 -580 43 -585 49 -13 13 125 28 228 25 113 -4 146 1 97 15
-44 11 -220 6 -288 -10 -42 -9 -78 -24 -95 -40 -37 -35 -123 -35 -160 0 -17
16 -53 31 -95 40 -68 16 -244 21 -287 10 -50 -14 -17 -19 96 -15 103 3 241
-12 228 -25 -5 -6 -580 -54 -585 -49 -7 7 108 529 118 539 15 15 13 3 -25
-210 -34 -186 -40 -234 -31 -234 3 0 35 8 73 17 47 12 109 17 203 16 142 0
231 -15 318 -53 100 -45 41 22 -63 70 -84 39 -203 63 -313 64 l-94 1 5 30 c3
17 17 122 32 235 15 113 31 209 35 213 4 4 23 9 44 11 59 5 55 16 -7 16 -50 0
-56 -2 -59 -22z m-8 -48 c0 -5 -13 -106 -30 -225 -16 -119 -30 -219 -30 -223
0 -4 33 -6 73 -4 84 5 231 -19 312 -49 31 -11 54 -23 52 -25 -2 -2 -35 3 -73
12 -88 20 -305 21 -389 0 -33 -8 -62 -13 -64 -10 -2 2 16 115 40 251 32 181
48 252 61 265 19 19 48 24 48 8z m1038 -8 c13 -13 29 -84 61 -265 24 -136 42
-249 40 -251 -2 -3 -31 2 -64 10 -84 21 -301 20 -389 0 -38 -9 -71 -14 -73
-12 -2 2 21 14 52 25 81 30 228 54 313 49 39 -2 72 0 72 4 0 4 -13 104 -30
223 -16 119 -30 220 -30 225 0 16 29 11 48 -8z"/>
<path d="M1620 1521 c-38 -21 -87 -68 -78 -76 3 -3 19 7 36 23 17 16 45 35 62
42 16 7 30 16 30 21 0 13 -10 11 -50 -10z"/>
<path d="M1440 1504 c0 -10 63 -65 68 -59 3 3 -7 19 -23 35 -27 28 -45 38 -45
24z"/>
<path d="M1520 1205 c0 -137 4 -215 10 -215 6 0 10 78 10 215 0 137 -4 215
-10 215 -6 0 -10 -78 -10 -215z"/>
</g>
</svg>
